<svg  width="79" height="33" xmlns="http://www.w3.org/2000/svg" xmlns:xlink="http://www.w3.org/1999/xlink" viewBox="0 0 57.69 28.99"><defs><clipPath id="clip-path" transform="translate(-9.94 -1.83)"><rect width="78" height="32" style="fill:none"/></clipPath></defs><g id="Layer_2" data-name="Layer 2"><g id="Layer_1-2" data-name="Layer 1"><g style="clip-path:url(#clip-path)"><path d="M19,1.83V12.54l9.06,4.05Z" transform="translate(-9.94 -1.83)" style="fill:#fff;fill-opacity:0.6019999980926514"/><path d="M19,1.83,9.94,16.59,19,12.54Z" transform="translate(-9.94 -1.83)" style="fill:#fff"/><path d="M19,23.53v7.29l9.06-12.55Z" transform="translate(-9.94 -1.83)" style="fill:#fff;fill-opacity:0.6019999980926514"/><path d="M19,30.82V23.53L9.94,18.28Z" transform="translate(-9.94 -1.83)" style="fill:#fff"/><path d="M19,21.85l9.06-5.26L19,12.54Z" transform="translate(-9.94 -1.83)" style="fill:#fff;fill-opacity:0.20000000298023224"/><path d="M9.94,16.59,19,21.85V12.54Z" transform="translate(-9.94 -1.83)" style="fill:#fff;fill-opacity:0.6019999980926514"/><path d="M41.18,9.78v3.27H45v1.49H41.18v3.4H45.5v1.49H39.35V8.3H45.5V9.78ZM54.93,8.31V9.8H52v9.63H50.14V9.8h-3V8.31Zm10.72,0V19.43H63.83V14.57H58.6v4.86H56.77V8.31H58.6v4.77h5.23V8.31Z" transform="translate(-9.94 -1.83)" style="fill:#fff"/></g><path d="M38.51,22.89h.9v6.39h-.9Zm.44,0h3.67v.85H39Zm0,2.79h3.18v.85H39Zm0,2.75h3.67v.85H39Z" transform="translate(-9.94 -1.83)" style="fill:#fff"/><path d="M43.89,22.88h.9v6.4h-.9Zm.39,2.84h2.18a.9.9,0,0,0,.46-.12.79.79,0,0,0,.3-.35,1.28,1.28,0,0,0,0-1,.79.79,0,0,0-.3-.35.85.85,0,0,0-.46-.12H44.28v-.86h2.15a2,2,0,0,1,1,.23,1.63,1.63,0,0,1,.65.65,1.91,1.91,0,0,1,.23,1,2,2,0,0,1-.23,1,1.69,1.69,0,0,1-.65.65,2,2,0,0,1-1,.23H44.28Zm1.74.66.9-.2,1.63,3.1H47.49Z" transform="translate(-9.94 -1.83)" style="fill:#fff"/><path d="M50.51,29.05a1.92,1.92,0,0,1-.78-.84A2.62,2.62,0,0,1,49.45,27V25.21A2.62,2.62,0,0,1,49.73,24a2,2,0,0,1,.78-.84,2.24,2.24,0,0,1,3,.6,2.72,2.72,0,0,1,.42,1H53a1.42,1.42,0,0,0-.28-.53,1.37,1.37,0,0,0-.46-.37,1.33,1.33,0,0,0-.55-.12,1.22,1.22,0,0,0-1.14.72,1.77,1.77,0,0,0-.16.79V27a1.8,1.8,0,0,0,.16.79,1.22,1.22,0,0,0,1.14.72,1.3,1.3,0,0,0,.55-.12,1.31,1.31,0,0,0,.46-.35,1.51,1.51,0,0,0,.28-.55h.92a2.53,2.53,0,0,1-.43,1,2.07,2.07,0,0,1-.77.67,2.14,2.14,0,0,1-1,.23A2.2,2.2,0,0,1,50.51,29.05Z" transform="translate(-9.94 -1.83)" style="fill:#fff"/><path d="M58,26.56v.85h-3v-.85Z" transform="translate(-9.94 -1.83)" style="fill:#fff"/><path d="M59.24,28.5l2.23-3a3.12,3.12,0,0,0,.3-.53,1.4,1.4,0,0,0,.1-.51h0a.76.76,0,0,0-.22-.59.9.9,0,0,0-.64-.21.85.85,0,0,0-.63.23,1,1,0,0,0-.29.65h-.93a2.37,2.37,0,0,1,.32-.94,1.55,1.55,0,0,1,.63-.59,1.86,1.86,0,0,1,.89-.21,2.25,2.25,0,0,1,1,.2,1.35,1.35,0,0,1,.61.57,1.72,1.72,0,0,1,.22.9h0a2.08,2.08,0,0,1-.14.71,3.14,3.14,0,0,1-.4.71l-1.85,2.52h2.42v.85h-3.6Z" transform="translate(-9.94 -1.83)" style="fill:#fff"/><path d="M64.45,28.87A1.85,1.85,0,0,1,64,27.53V24.62a1.65,1.65,0,0,1,1.83-1.81,1.63,1.63,0,0,1,1.82,1.81v2.91a1.85,1.85,0,0,1-.46,1.34,2.2,2.2,0,0,1-2.72,0Zm2.06-.63a1,1,0,0,0,.22-.71V24.62a1,1,0,0,0-.22-.71.92.92,0,0,0-.7-.25.94.94,0,0,0-.71.25,1,1,0,0,0-.22.71v2.91a1,1,0,0,0,.23.71.88.88,0,0,0,.7.25A.89.89,0,0,0,66.51,28.24Z" transform="translate(-9.94 -1.83)" style="fill:#fff"/></g></g></svg>