<svg  width="79" height="33" xmlns="http://www.w3.org/2000/svg" xmlns:xlink="http://www.w3.org/1999/xlink" viewBox="0 0 74.93 24.78"><defs><clipPath id="clip-path" transform="translate(-1.04 -4.69)"><rect width="78" height="32" style="fill:none"/></clipPath></defs><g id="Layer_2" data-name="Layer 2"><g id="Layer_1-2" data-name="Layer 1"><path d="M41.75,23h.9v6.39h-.9Zm.43,0h3.67v.85H42.18Zm0,2.79h3.19v.85H42.18Zm0,2.74h3.67v.86H42.18Z" transform="translate(-1.04 -4.69)" style="fill:#fff"/><path d="M47.13,23H48v6.4h-.89Zm.39,2.84H49.7a.84.84,0,0,0,.45-.12.88.88,0,0,0,.31-.35,1.24,1.24,0,0,0,.1-.52,1.21,1.21,0,0,0-.1-.52.88.88,0,0,0-.31-.35.85.85,0,0,0-.45-.13H47.52V23h2.14a2.06,2.06,0,0,1,1,.23,1.63,1.63,0,0,1,.65.65,2,2,0,0,1,.23,1,1.94,1.94,0,0,1-.24,1,1.54,1.54,0,0,1-.65.64,1.91,1.91,0,0,1-1,.23H47.52Zm1.74.66.89-.21,1.64,3.11H50.72Z" transform="translate(-1.04 -4.69)" style="fill:#fff"/><path d="M53.74,29.18a2.11,2.11,0,0,1-.78-.84,2.77,2.77,0,0,1-.27-1.25V25.34A2.78,2.78,0,0,1,53,24.08a2,2,0,0,1,.78-.83,2.39,2.39,0,0,1,2.18-.07,2.07,2.07,0,0,1,.77.67,2.42,2.42,0,0,1,.42,1h-.92a1.4,1.4,0,0,0-.28-.54,1.55,1.55,0,0,0-.45-.36,1.34,1.34,0,0,0-.55-.13,1.32,1.32,0,0,0-.69.19,1.37,1.37,0,0,0-.45.53,1.81,1.81,0,0,0-.16.8v1.75a1.8,1.8,0,0,0,.16.79,1.24,1.24,0,0,0,.45.53,1.34,1.34,0,0,0,1.24.07,1.37,1.37,0,0,0,.45-.35,1.35,1.35,0,0,0,.28-.56h.92a2.42,2.42,0,0,1-.42,1,2.24,2.24,0,0,1-.77.67,2.3,2.3,0,0,1-1,.23A2.36,2.36,0,0,1,53.74,29.18Z" transform="translate(-1.04 -4.69)" style="fill:#fff"/><path d="M61.25,26.69v.85h-3v-.85Z" transform="translate(-1.04 -4.69)" style="fill:#fff"/><path d="M62.47,28.63l2.23-3a2.17,2.17,0,0,0,.3-.53,1.51,1.51,0,0,0,.11-.51h0a.78.78,0,0,0-.22-.6.91.91,0,0,0-.64-.21.89.89,0,0,0-.63.23,1,1,0,0,0-.3.66h-.93a2.38,2.38,0,0,1,.33-.94,1.65,1.65,0,0,1,.63-.6,2,2,0,0,1,.89-.2,2.25,2.25,0,0,1,1,.2,1.44,1.44,0,0,1,.61.56,1.83,1.83,0,0,1,.21.91h0a2.08,2.08,0,0,1-.14.71,2.93,2.93,0,0,1-.39.71l-1.85,2.51h2.42v.86H62.47Z" transform="translate(-1.04 -4.69)" style="fill:#fff"/><path d="M67.68,29a1.82,1.82,0,0,1-.46-1.33V24.75a1.81,1.81,0,0,1,.47-1.34A1.83,1.83,0,0,1,69,22.94a1.8,1.8,0,0,1,1.36.47,1.84,1.84,0,0,1,.47,1.34v2.91A1.92,1.92,0,0,1,67.68,29Zm2.06-.62a1,1,0,0,0,.23-.71V24.75a1,1,0,0,0-.22-.71.9.9,0,0,0-.71-.25.88.88,0,0,0-.7.25,1,1,0,0,0-.22.71v2.91a1,1,0,0,0,.22.71.89.89,0,0,0,.7.25A.88.88,0,0,0,69.74,28.37Z" transform="translate(-1.04 -4.69)" style="fill:#fff"/><g style="clip-path:url(#clip-path)"><path d="M16.24,12.5V9.41h7.08V4.69H4V9.41h7.08V12.5C5.37,12.76,1,13.9,1,15.26S5.37,17.77,11.12,18V28h5.12V18c5.74-.27,10.05-1.4,10.05-2.77S22,12.77,16.24,12.5Zm0,4.7c-.15,0-.89.05-2.54.05-1.32,0-2.25,0-2.58-.06h0C6,17,2.25,16.09,2.25,15S6,13.08,11.12,12.86v3.46c.34,0,1.29.07,2.6.07,1.58,0,2.38-.06,2.52-.07V12.86C21.32,13.08,25.1,14,25.1,15S21.31,17,16.24,17.2Z" transform="translate(-1.04 -4.69)" style="fill:#fff"/><path d="M38.54,8.31V15.4a2.52,2.52,0,0,0,.66,1.9,3,3,0,0,0,3.71,0,2.49,2.49,0,0,0,.67-1.9V8.31h1.83v7.06a4.21,4.21,0,0,1-.6,2.3,3.65,3.65,0,0,1-1.58,1.41,5.44,5.44,0,0,1-4.38,0,3.66,3.66,0,0,1-1.56-1.41,4.38,4.38,0,0,1-.57-2.3V8.31Zm12.9,11.23a5.18,5.18,0,0,1-2-.38A3.37,3.37,0,0,1,48,18a2.83,2.83,0,0,1-.51-1.68h2A1.76,1.76,0,0,0,50,17.54a2,2,0,0,0,1.42.47,2.24,2.24,0,0,0,1.48-.45,1.52,1.52,0,0,0,.52-1.19,1.29,1.29,0,0,0-.33-.91,2.17,2.17,0,0,0-.82-.54A11.61,11.61,0,0,0,51,14.5a14,14,0,0,1-1.78-.57A3.12,3.12,0,0,1,48,13a2.67,2.67,0,0,1-.48-1.67A3,3,0,0,1,48,9.65a3.18,3.18,0,0,1,1.34-1.1,4.86,4.86,0,0,1,2-.38A4.12,4.12,0,0,1,54,9a3,3,0,0,1,1.16,2.21h-2a1.44,1.44,0,0,0-.58-1,2.1,2.1,0,0,0-1.39-.43,2,2,0,0,0-1.28.4,1.39,1.39,0,0,0-.49,1.15,1.24,1.24,0,0,0,.3.85,2.39,2.39,0,0,0,.8.51,12.15,12.15,0,0,0,1.31.42,12.75,12.75,0,0,1,1.79.6,3,3,0,0,1,1.19.95,2.61,2.61,0,0,1,.49,1.68,3,3,0,0,1-.46,1.6,3.2,3.2,0,0,1-1.33,1.21A4.37,4.37,0,0,1,51.44,19.54ZM61.07,8.31a6.62,6.62,0,0,1,3.1.69A4.76,4.76,0,0,1,66.24,11a5.78,5.78,0,0,1,.73,3,5.68,5.68,0,0,1-.73,2.94,4.7,4.7,0,0,1-2.07,1.92,6.87,6.87,0,0,1-3.1.66H57.44V8.31Zm0,9.63a4,4,0,0,0,3-1.05,4.09,4.09,0,0,0,1-3,4.19,4.19,0,0,0-1-3,3.92,3.92,0,0,0-3-1.09H59.26v8.14ZM76,8.31V9.8H73v9.63H71.18V9.8h-3V8.31Z" transform="translate(-1.04 -4.69)" style="fill:#fff"/></g></g></g></svg>